<?xml version="1.0" encoding="UTF-8"?>
<svg width="86px" height="30px" viewBox="0 0 86 30" version="1.1" xmlns="http://www.w3.org/2000/svg" xmlns:xlink="http://www.w3.org/1999/xlink">
    <!-- Generator: sketchtool 49.3 (51167) - http://www.bohemiancoding.com/sketch -->
    <title>B679CD84-6C87-4079-AB59-DF0EEE117B18</title>
    <desc>Created with sketchtool.</desc>
    <defs></defs>
    <g id="Page-1" stroke="none" stroke-width="1" fill="none" fill-rule="evenodd">
        <g id="1.-Homepage" transform="translate(-1340.000000, -684.000000)">
            <g id="Group-14" transform="translate(1340.000000, 684.000000)">
                <g id="Page-1" transform="translate(48.000000, 0.000000)">
                    <polygon id="Fill-1" fill="#CC2E93" points="4.9662 0.0003 0.0002 8.6803 18.8862 29.3563 37.7752 8.6803 32.8082 0.0003"></polygon>
                    <polygon id="Fill-2" fill="#EF73BD" points="0 8.6799 18.887 29.3569 9.227 8.6799"></polygon>
                    <polygon id="Fill-3" fill="#EF73BD" points="4.9662 0.0003 0.7102 7.4393 9.2272 7.4393 11.7092 0.0003"></polygon>
                    <polygon id="Fill-4" fill="#EF73BD" points="28.548 8.6799 18.887 29.3569 37.775 8.6799"></polygon>
                    <polygon id="Fill-5" fill="#EF73BD" points="26.0658 0.0003 28.5478 7.4393 37.0648 7.4393 32.8088 0.0003"></polygon>
                    <polygon id="Fill-6" fill="#F9AAE1" points="13.3434 0.0003 12.1014 7.4393 25.6714 7.4393 24.4294 0.0003"></polygon>
                    <polygon id="Fill-7" fill="#F9AAE1" points="12.1014 8.6844 18.8864 29.3564 25.6714 8.6844"></polygon>
                </g>
                <g id="Page-1">
                    <polygon id="Fill-1" fill="#CC2E93" points="4.9662 0.0003 0.0002 8.6803 18.8862 29.3563 37.7752 8.6803 32.8082 0.0003"></polygon>
                    <polygon id="Fill-2" fill="#EF73BD" points="0 8.6799 18.887 29.3569 9.227 8.6799"></polygon>
                    <polygon id="Fill-3" fill="#EF73BD" points="4.9662 0.0003 0.7102 7.4393 9.2272 7.4393 11.7092 0.0003"></polygon>
                    <polygon id="Fill-4" fill="#EF73BD" points="28.548 8.6799 18.887 29.3569 37.775 8.6799"></polygon>
                    <polygon id="Fill-5" fill="#EF73BD" points="26.0658 0.0003 28.5478 7.4393 37.0648 7.4393 32.8088 0.0003"></polygon>
                    <polygon id="Fill-6" fill="#F9AAE1" points="13.3434 0.0003 12.1014 7.4393 25.6714 7.4393 24.4294 0.0003"></polygon>
                    <polygon id="Fill-7" fill="#F9AAE1" points="12.1014 8.6844 18.8864 29.3564 25.6714 8.6844"></polygon>
                </g>
            </g>
        </g>
    </g>
</svg>