<?xml version="1.0" encoding="UTF-8"?>
<svg width="215px" height="122px" viewBox="0 0 215 122" version="1.1" xmlns="http://www.w3.org/2000/svg" xmlns:xlink="http://www.w3.org/1999/xlink">
    <!-- Generator: sketchtool 49.3 (51167) - http://www.bohemiancoding.com/sketch -->
    <title>59245B39-1C39-4F45-8015-6B6504784496</title>
    <desc>Created with sketchtool.</desc>
    <defs>
        <polygon id="path-1" points="0 0.647 214.900904 0.647 214.900904 55.0223 0 55.0223"></polygon>
    </defs>
    <g id="Page-1" stroke="none" stroke-width="1" fill="none" fill-rule="evenodd">
        <g id="1.-Homepage" transform="translate(-1188.000000, -1255.000000)">
            <g id="Page-1" transform="translate(1188.000000, 1254.000000)">
                <path d="M211.2961,37.7348 L3.5291,36.7328 C3.5291,36.7328 5.1491,44.6738 4.7911,48.2408 C4.0191,55.9768 8.1131,56.5628 8.1131,56.5628 C8.1131,56.7958 8.0851,57.0628 8.0261,57.3688 C8.0251,57.3808 8.0241,57.3928 8.0241,57.4078 C8.0241,57.4148 10.2591,58.4648 11.0001,61.9578 C13.8721,65.1908 18.1091,60.0328 20.3031,56.8008 C21.8461,60.4648 24.8901,64.8058 25.2511,64.8058 C25.3451,64.8058 25.7061,64.5738 26.1911,64.1928 C27.2871,65.7588 28.1281,67.4538 28.1281,69.3498 C28.1281,74.8828 31.1041,86.7998 33.7251,86.7998 C35.0191,86.7998 35.9591,79.9668 36.9131,72.4808 C37.1981,74.3928 37.7821,76.2658 38.7021,78.0168 C38.8451,78.3098 46.0431,81.6398 49.5391,80.3578 C50.0821,84.0808 53.2401,87.0368 53.2401,89.6758 C53.2401,98.1888 58.9561,93.9318 58.9561,93.0818 C58.9561,92.6418 61.8621,90.7458 65.5751,84.0898 C67.1151,86.8918 69.4471,86.8428 67.9501,89.9258 C66.5941,95.8108 66.5941,93.3948 67.9501,99.2808 C69.3221,101.1358 71.4121,102.3668 73.7371,102.6858 C76.1301,103.6038 78.2661,105.0608 79.9681,106.9368 L79.9691,106.9388 C80.1281,112.8968 80.7911,118.9148 82.7851,121.9518 C83.5401,122.0838 84.5931,122.3528 86.0581,122.3528 C93.4131,122.3528 92.7021,113.9748 95.8721,109.8998 C97.6941,107.5568 101.3011,106.7218 101.8721,103.0658 C102.1161,101.5068 103.7761,100.9798 105.6131,100.7778 C105.6971,100.5938 105.7821,100.4098 105.8651,100.2248 C106.9561,101.0798 108.0841,101.6978 109.1201,101.8348 C112.8811,102.3268 112.1791,106.9418 112.1791,111.6238 C112.1791,116.3048 119.9441,111.6238 119.9441,106.9418 C119.9441,102.2598 125.5661,104.3968 123.5361,96.7358 C122.5441,92.9988 122.7031,89.7978 122.6811,86.8738 C123.7871,91.1438 125.3681,94.8968 126.8391,94.8968 C128.3171,94.8968 129.3391,85.9618 130.4411,77.3298 C130.4981,76.8548 130.5601,76.3648 130.6321,75.8438 C133.9301,74.4098 134.5391,85.3998 134.5391,85.8998 C134.5391,86.3998 137.3721,87.0658 137.7061,86.8998 C138.0401,86.7338 140.0391,93.5658 140.0391,93.8998 C140.0391,94.1128 140.5421,95.6738 141.2321,97.2128 C143.5801,98.7908 145.5901,99.1738 146.3281,98.4548 C148.9501,95.9008 151.5701,91.0228 150.6981,82.2818 C150.5051,80.3558 150.5881,78.2378 150.8631,76.1098 C152.6911,78.2918 154.5731,80.6888 154.5731,83.5418 C154.5731,89.0748 157.4201,92.0658 160.0391,92.0658 C161.1571,92.0658 166.5701,80.2278 162.5081,67.0118 C163.6001,66.0118 164.7991,64.7608 166.0331,63.3808 C167.5501,67.2638 169.0811,70.4158 169.9101,71.2238 C171.6581,72.9258 178.9231,76.6608 183.8891,76.3318 C190.3241,71.9068 193.6951,64.3578 192.6251,56.7538 C193.5391,56.6488 195.6121,57.1678 196.4431,58.1698 C199.5021,61.8538 204.7431,63.5298 205.1811,65.8738 C205.6181,68.2178 205.1811,72.2378 207.8011,72.2378 C210.4231,72.2378 212.1701,65.2038 208.6751,58.1698 C205.1811,51.1348 211.2961,37.7348 211.2961,37.7348" id="Fill-1" fill="#624A79"></path>
                <path d="M109.1134,80.7163 C108.3634,85.4663 108.9764,88.5643 103.7384,90.8413 C103.3804,90.9973 102.3534,93.0863 102.3534,93.7283 C102.3534,93.7373 104.7924,96.5663 105.6254,100.7533 C105.7054,100.5773 105.7864,100.4023 105.8654,100.2253 C106.9564,101.0793 108.0844,101.6973 109.1204,101.8343 C112.8814,102.3263 112.1784,106.9423 112.1784,111.6233 C112.1784,112.9013 112.7654,113.4623 113.6064,113.5363 C113.7964,111.3103 114.9884,109.8413 116.7384,108.7163 C118.0814,105.9193 118.4424,101.7213 118.4424,97.1483 C118.4424,92.4903 112.8634,87.8413 113.1134,80.4693 C111.8854,79.2803 110.6464,80.1233 109.1134,80.7163" id="Fill-3" fill="#816698"></path>
                <g id="Group-7" transform="translate(0.000000, 0.353000)">
                    <mask id="mask-2" fill="white">
                        <use xlink:href="#path-1"></use>
                    </mask>
                    <g id="Clip-6"></g>
                    <path d="M213.9806,14.4443 C213.2086,6.5963 206.6246,0.6463 198.7386,0.6463 L16.0396,0.6463 C8.1036,0.6463 1.4716,6.7083 0.7816,14.6133 C-0.1994,25.8553 -0.7754,40.1753 2.3166,42.6473 C4.1026,44.0753 9.1896,41.0933 11.4086,41.6463 C15.9606,42.7803 19.2706,46.7343 24.6716,46.7343 C31.9966,46.7343 36.8836,42.3313 44.5906,42.3313 C50.3926,42.3313 46.1286,46.6553 53.0646,46.6553 C66.0486,46.6553 59.3716,55.0223 69.3916,55.0223 C79.5376,55.0223 74.6796,43.7453 80.2656,43.7443 C81.7536,43.7443 85.6386,46.4183 88.1426,46.4183 C89.9276,46.4183 92.0276,46.1833 92.8266,45.3693 C95.4666,46.1983 97.8116,46.5543 99.8976,46.5543 C105.1306,46.5543 108.7206,44.3083 111.2346,41.6463 L113.8356,41.6463 C115.1686,43.1263 117.0726,44.2573 120.9586,44.2573 C140.6236,44.2573 128.1586,52.3693 142.5216,52.3693 C154.3216,52.3693 156.9276,46.9123 157.9906,43.1153 C159.6836,44.6703 161.7276,45.2103 163.9596,45.2103 C173.0586,45.2103 176.5566,44.5843 177.6146,43.9543 C178.7986,44.6483 180.9026,45.6663 184.4576,47.1153 C185.2656,47.4453 186.4326,47.5883 187.5296,47.5883 C187.5296,47.5883 207.2656,42.0883 208.8506,41.6463 C211.5866,41.6463 210.6326,43.3663 212.2956,42.4873 C215.8166,40.6253 215.1076,25.9043 213.9806,14.4443" id="Fill-5" fill="#86739B" mask="url(#mask-2)"></path>
                </g>
            </g>
        </g>
    </g>
</svg>