<?xml version="1.0" encoding="UTF-8"?>
<svg width="1440px" height="179px" viewBox="0 0 1440 179" version="1.1" xmlns="http://www.w3.org/2000/svg" xmlns:xlink="http://www.w3.org/1999/xlink">
    <!-- Generator: sketchtool 49.3 (51167) - http://www.bohemiancoding.com/sketch -->
    <title>9BB03063-32C8-40E1-B984-A33E2E0CBBA7</title>
    <desc>Created with sketchtool.</desc>
    <defs>
        <rect id="path-1" x="0" y="0" width="1440" height="183"></rect>
        <polygon id="path-3" points="0 0.000346498388 1549.9997 0.000346498388 1549.9997 182.184125 0 182.184125"></polygon>
    </defs>
    <g id="Page-1" stroke="none" stroke-width="1" fill="none" fill-rule="evenodd" opacity="0.100000001">
        <g id="5.-Game-inner-page" transform="translate(0.000000, -123.000000)">
            <g id="Page-1" transform="translate(0.000000, 123.000000)">
                <mask id="mask-2" fill="white">
                    <use xlink:href="#path-1"></use>
                </mask>
                <g id="Mask"></g>
                <g mask="url(#mask-2)">
                    <g transform="translate(-54.000000, 0.000000)">
                        <mask id="mask-4" fill="white">
                            <use xlink:href="#path-3"></use>
                        </mask>
                        <g id="Clip-2" stroke="none" fill="none"></g>
                        <path d="M989.86586,60.1253298 C989.86586,60.1253298 1050.79598,49.4916778 1065.5269,60.1253298 C1080.25783,70.7589818 973.565669,68.405827 989.86586,60.1253298 M949.759981,75.4786281 C833.760411,73.6218881 591.123174,41.082261 663.765717,44.9780067 C808.985602,52.7650526 1076.70735,77.5102247 949.759981,75.4786281 M370.113327,67.9701673 C347.127094,51.5781023 398.61347,21.8139532 508.269302,28.8852725 C617.925134,35.9565918 419.956348,103.516439 370.113327,67.9701673 M356.347075,51.0994694 C348.460746,61.69163 322.562706,72.9846989 287.455057,74.5258078 C287.455057,74.5258078 252.313327,72.7639054 262.383881,59.7430163 C272.452954,46.7221272 364.234885,40.5073088 356.347075,51.0994694 M1152.86777,36.4278155 C1021.16223,51.2935899 940.528145,47.4422992 852.462658,35.3727486 C983.412467,40.883695 1127.67657,30.6205019 1152.86777,19.499326 C1188.43183,3.7992782 1385.61524,19.3126147 1385.61524,19.3126147 L1403.29798,11.8411998 C1403.29798,11.8411998 1247.70525,-9.43647706 1131.65233,19.3126147 C1015.59793,48.0617065 703.871597,11.8411998 703.871597,11.8411998 C703.871597,11.8411998 703.871597,11.8426816 703.871597,11.8426816 C689.248843,9.50434512 673.987419,7.1200717 657.934694,4.70912524 C457.886893,-25.3454637 -0.000296367113,98.3018595 -0.000296367113,98.3018595 L40.0092639,182.184125 C40.0092639,182.184125 494.932782,58.1574522 593.443728,58.7635229 C691.956157,59.3695937 936.51978,115.657118 1111.4401,84.6660086 C1286.36041,53.6763815 1512.95381,122.44837 1512.95381,122.44837 L1549.9997,49.1508556 C1549.9997,49.1508556 1369.21576,12.0071654 1152.86777,36.4278155" id="Fill-1" stroke="none" fill="#FFFFFF" fill-rule="evenodd" mask="url(#mask-4)"></path>
                    </g>
                </g>
            </g>
        </g>
    </g>
</svg>