<?xml version="1.0" encoding="UTF-8"?>
<svg width="1440px" height="402px" viewBox="0 0 1440 402" version="1.1" xmlns="http://www.w3.org/2000/svg" xmlns:xlink="http://www.w3.org/1999/xlink">
    <!-- Generator: sketchtool 49.3 (51167) - http://www.bohemiancoding.com/sketch -->
    <title>324D90DE-26D7-4BC5-934F-A6A6CCC9170A</title>
    <desc>Created with sketchtool.</desc>
    <defs>
        <rect id="path-1" x="0" y="0" width="1440" height="403.508772"></rect>
        <polygon id="path-3" points="0.000584795322 1.47368421 1999.02534 1.47368421 1999.02534 257.068106 0.000584795322 257.068106"></polygon>
    </defs>
    <g id="Page-1" stroke="none" stroke-width="1" fill="none" fill-rule="evenodd" opacity="0.100000001">
        <g id="2.-All-games" transform="translate(0.000000, -1091.000000)">
            <g id="Page-1" transform="translate(0.000000, 1090.000000)">
                <mask id="mask-2" fill="white">
                    <use xlink:href="#path-1"></use>
                </mask>
                <g id="Mask"></g>
                <g mask="url(#mask-2)">
                    <g transform="translate(-182.000000, 0.000000)">
                        <path d="M1903.76199,281.620858 C1903.76199,281.620858 1451.52027,136.153021 1276.08168,192.683236 C1276.08168,192.683236 1562.63138,173.190058 1884.26881,301.845029 L1903.76199,281.620858 Z" id="Fill-1" fill="#FFFFFF"></path>
                        <path d="M1231.59571,286.560819 C1231.59571,286.560819 1325.09474,285.44386 1334.95439,306.70117 C1344.81793,327.95848 1165.15127,297.7577 1231.59571,286.560819 M356.377388,350.726511 C348.757505,347.206043 353.094737,340.12807 362.872515,340.055945 C432.05575,339.554971 612.65809,338.447758 657.605458,340.268421 C737.320858,343.494542 529.014815,430.47115 356.377388,350.726511 M1854.24678,340.268421 C1841.26043,346.979922 1276.59181,285.44386 1190.09864,251.024756 C1103.60351,216.605653 939.359844,277.609552 757.739961,301.944834 C576.118129,326.276218 3.68732943,306.70117 3.68732943,306.70117 L40.7243665,342.504288 C40.7243665,342.504288 582.634698,467.820078 859.437817,354.81423 C1136.24094,241.806433 1892.57622,398.449708 1892.57622,398.449708 C1892.57622,398.449708 1867.23509,333.553021 1854.24678,340.268421" id="Fill-3" fill="#FFFFFF"></path>
                        <g id="Group-7" stroke-width="1" fill="none" transform="translate(0.000000, 0.475634)">
                            <mask id="mask-4" fill="white">
                                <use xlink:href="#path-3"></use>
                            </mask>
                            <g id="Clip-6"></g>
                            <path d="M1202.21696,72.257115 C1155.14873,75.4208577 1337.00253,20.0816764 1374.15263,47.9335283 C1411.30663,75.7873294 1300.19552,65.6723197 1202.21696,72.257115 M1077.97329,69.4169591 C1030.98109,98.0836257 992.632164,100.251267 890.476218,77.6937622 C963.912865,81.8360624 1029.00058,76.3623782 1078.71793,68.9725146 C1078.47427,69.1206628 1078.21306,69.2707602 1077.97329,69.4169591 M688.109747,72.2025341 C688.109747,72.2025341 812.501559,88.0953216 819.505458,106.231774 C826.511306,124.366277 623.782261,83.8867446 688.109747,72.2025341 M545.35731,65.6723197 C514.620468,82.7269006 480.912865,76.0309942 507.513255,58.5573099 C513.168226,54.8419103 576.094152,48.6196881 545.35731,65.6723197 M366.733528,105.701559 C363.834893,97.8380117 399.975244,44.2590643 452.489864,58.5573099 C505.004483,72.8575049 376.743275,132.838012 366.733528,105.701559 M1589.42164,66.5553606 C1705.6848,74.4111111 1892.69454,74.4111111 1892.69454,74.4111111 L1881.22281,47.4033138 C1810.28129,81.7093567 1610.86998,55.0426901 1518.95575,40.21423 C1511.45673,37.0446394 1504.37096,33.8847953 1497.76082,30.7463938 C1367.97135,-30.8871345 1181.20721,17.7269006 1098.02398,58.5436647 C991.951852,65.8692008 853.764717,54.9374269 751.75692,43.7522417 C735.712086,39.6625731 718.766667,35.3331384 700.780312,30.7463938 C442.495712,-35.1132554 138.402144,174.337037 132.554191,174.337037 L132.554191,215.808772 C88.7783626,212.752242 51.6477583,208.760039 27.9148148,206.027096 C10.8738791,204.062183 0.737426901,202.746394 0.000584795322,202.890643 C0.000584795322,202.890643 83.8212476,262.017349 144.236452,254.32729 C199.441131,260.606043 270.686745,257.323392 358.367057,231.496881 C543.109747,177.081676 618.179922,194.27271 643.24425,205.342885 C619.575634,193.781481 554.817349,172.750292 431.977193,202.890643 C365.201365,219.27271 279.963548,221.90039 202.869981,219.434503 C314.639961,156.069981 531.95575,49.7074074 647.174074,105.701559 C806.661404,183.208382 1017.54444,166.007602 1202.21696,105.701559 C1386.88947,45.3935673 1999.02593,252.066082 1999.02593,252.066082 L1999.02593,174.337037 C1999.02593,174.337037 1754.61072,122.453996 1589.42164,66.5553606" id="Fill-5" fill="#FFFFFF" mask="url(#mask-4)"></path>
                        </g>
                    </g>
                </g>
            </g>
        </g>
    </g>
</svg>