<svg width="127" height="30" xmlns="http://www.w3.org/2000/svg"><g fill="none" fill-rule="evenodd"><path fill="#CC2E93" d="M45.966 0L41 8.68l18.886 20.676L78.776 8.68 73.807 0z"/><path fill="#EF73BD" d="M41 8.68l18.887 20.677-9.66-20.677zM45.966 0L41.71 7.44h8.517L52.71 0zm23.582 8.68l-9.661 20.677L78.775 8.68zM67.066 0l2.482 7.44h8.517L73.809 0z"/><path fill="#F9AAE1" d="M54.343 0l-1.242 7.44h13.57L65.43 0zm-1.242 8.684l6.785 20.672 6.785-20.672z"/><path fill="#CC2E93" d="M-2.034 0L-7 8.68l18.886 20.676L30.776 8.68 25.807 0z"/><path fill="#EF73BD" d="M-7 8.68l18.887 20.677L2.227 8.68zM-2.034 0L-6.29 7.44h8.517L4.71 0z"/><path fill="#EF73BD" d="M21.548 8.68l-9.661 20.677L30.775 8.68zM19.066 0l2.482 7.44h8.517L25.809 0z"/><path fill="#F9AAE1" d="M6.343 0L5.101 7.44h13.57L17.43 0zM5.101 8.684l6.785 20.672 6.785-20.672z"/><path fill="#CC2E93" d="M93.966 0L89 8.68l18.886 20.676 18.89-20.676L121.807 0z"/><path fill="#EF73BD" d="M89 8.68l18.887 20.677-9.66-20.677zM93.966 0L89.71 7.44h8.517L100.71 0zm23.582 8.68l-9.661 20.677L126.775 8.68zM115.066 0l2.482 7.44h8.517L121.809 0z"/><path fill="#F9AAE1" d="M102.343 0l-1.242 7.44h13.57L113.43 0zm-1.242 8.684l6.785 20.672 6.785-20.672z"/></g></svg>