<svg width="86" height="30" xmlns="http://www.w3.org/2000/svg"><g fill="none" fill-rule="evenodd"><path fill="#CC2E93" d="M52.966 0L48 8.68l18.886 20.676L85.776 8.68 80.807 0z"/><path fill="#EF73BD" d="M48 8.68l18.887 20.677-9.66-20.677zM52.966 0L48.71 7.44h8.517L59.71 0zm23.582 8.68l-9.661 20.677L85.775 8.68zM74.066 0l2.482 7.44h8.517L80.809 0z"/><path fill="#F9AAE1" d="M61.343 0l-1.242 7.44h13.57L72.43 0zm-1.242 8.684l6.785 20.672 6.785-20.672z"/><path fill="#CC2E93" d="M4.966 0L0 8.68l18.886 20.676L37.776 8.68 32.807 0z"/><path fill="#EF73BD" d="M0 8.68l18.887 20.677L9.227 8.68zM4.966 0L.71 7.44h8.517L11.71 0zm23.582 8.68l-9.661 20.677L37.775 8.68zM26.066 0l2.482 7.44h8.517L32.809 0z"/><path fill="#F9AAE1" d="M13.343 0l-1.242 7.44h13.57L24.43 0zm-1.242 8.684l6.785 20.672 6.785-20.672z"/></g></svg>